# xmcd
#
# Track frame offsets:
#	150
#	22647
#	38320
#	58462
#	84670
#	105855
#	131387
#	156630
#	180392
#	210042
#	223117
#	237185
#	269745
#	285525
#	307030
#
# Disc length: 4613 seconds
#
# Revision: 9
# Processed by: cddbd v1.5.2PL0 Copyright (c) Steve Scherf et al.
# Submitted via: audiograbber 1.83.01
#
DISCID=c612030f
DTITLE=Phil Collins - Serious Hits... Live!
DYEAR=1990
DGENRE=Pop
TTITLE0=Something Happened On The Way To Heaven
TTITLE1=Against All Odds (Take A Look At Me Now)
TTITLE2=Who Said I Would
TTITLE3=One More Night
TTITLE4=Don't Lose My Number
TTITLE5=Do You Remember?
TTITLE6=Another Day In Paradise
TTITLE7=Separate Lives
TTITLE8=In The Air Tonight
TTITLE9=You Can't Hurry Love
TTITLE10=Two Hearts
TTITLE11=Sussudio
TTITLE12=A Groovy Kind Of Love
TTITLE13=Easy Lover
TTITLE14=Take Me Home
EXTD=
EXTT0=
EXTT1=
EXTT2=
EXTT3=
EXTT4=
EXTT5=
EXTT6=
EXTT7=
EXTT8=
EXTT9=
EXTT10=
EXTT11=
EXTT12=
EXTT13=
EXTT14=
PLAYORDER=
